<?xml version="1.0" encoding="UTF-8"?>
<svg width="17px" height="17px" viewBox="0 0 17 17" version="1.1" xmlns="http://www.w3.org/2000/svg" xmlns:xlink="http://www.w3.org/1999/xlink">
    <!-- Generator: sketchtool 51.2 (57519) - http://www.bohemiancoding.com/sketch -->
    <title>585E33CF-F714-4BF7-9FBE-C3CDB45F340C</title>
    <desc>Created with sketchtool.</desc>
    <defs></defs>
    <g id="Symbols" stroke="none" stroke-width="1" fill="none" fill-rule="evenodd">
        <g id="Header" transform="translate(-1364.000000, -29.000000)" fill="#666666" fill-rule="nonzero">
            <g id="call">
                <path d="M1379.3727,40.4471253 C1378.29724,40.4471253 1377.25677,40.2722553 1376.28624,39.9574893 C1375.98022,39.8525673 1375.63922,39.9312588 1375.40315,40.1673333 L1374.03042,41.889803 C1371.55601,40.7094304 1369.23898,38.4798376 1368.00614,35.9179917 L1369.71113,34.4665705 C1369.9472,34.2217525 1370.01715,33.880756 1369.92097,33.5747334 C1369.59746,32.6042048 1369.43133,31.5637281 1369.43133,30.4882775 C1369.43133,30.0161284 1369.03788,29.6226709 1368.56573,29.6226709 L1365.54048,29.6226709 C1365.06833,29.6226709 1364.5,29.8325149 1364.5,30.4882775 C1364.5,38.6109901 1371.25873,45.360973 1379.3727,45.360973 C1379.99348,45.360973 1380.2383,44.8101324 1380.2383,44.3292399 L1380.2383,41.312732 C1380.2383,40.8405829 1379.84484,40.4471253 1379.3727,40.4471253 Z"></path>
            </g>
        </g>
    </g>
</svg>