<?xml version="1.0" encoding="UTF-8"?>
<svg width="29px" height="43px" viewBox="0 0 29 43" version="1.1" xmlns="http://www.w3.org/2000/svg" xmlns:xlink="http://www.w3.org/1999/xlink">
    <!-- Generator: sketchtool 51.2 (57519) - http://www.bohemiancoding.com/sketch -->
    <title>7A82FA0F-05AC-43F0-8602-95CCF77E788F</title>
    <desc>Created with sketchtool.</desc>
    <defs></defs>
    <g id="Pages" stroke="none" stroke-width="1" fill="none" fill-rule="evenodd">
        <g id="Головна-Світанок" transform="translate(-503.000000, -2879.000000)" fill="#A5C7E9" fill-rule="nonzero">
            <g id="Map-and-Contacts" transform="translate(0.000000, 2770.000000)">
                <g id="contacts" transform="translate(475.000000, 44.697562)">
                    <path d="M41.3550179,99.3040776 C32.6534955,90.9116094 28.3027344,84.2093387 28.3027344,79.1972656 C28.3027344,71.3563323 34.6590667,65 42.5,65 C50.3409333,65 56.6972656,71.3563323 56.6972656,79.1972656 C56.6972656,84.2093387 52.3465045,90.9116094 43.6449821,99.3040776 C49.7353167,99.4962405 54.5,101.205698 54.5,103.286106 C54.5,105.495245 49.127417,107.286106 42.5,107.286106 C35.872583,107.286106 30.5,105.495245 30.5,103.286106 C30.5,101.205698 35.2646833,99.4962405 41.3550179,99.3040776 Z M42.5,88.4254883 C47.5966066,88.4254883 51.7282227,84.2938723 51.7282227,79.1972656 C51.7282227,74.100659 47.5966066,69.969043 42.5,69.969043 C37.4033934,69.969043 33.2717773,74.100659 33.2717773,79.1972656 C33.2717773,84.2938723 37.4033934,88.4254883 42.5,88.4254883 Z M42.5,83.3228402 C40.2215081,83.3228402 38.3744255,81.4757575 38.3744255,79.1972656 C38.3744255,76.9187737 40.2215081,75.0716911 42.5,75.0716911 C44.7784919,75.0716911 46.6255745,76.9187737 46.6255745,79.1972656 C46.6255745,81.4757575 44.7784919,83.3228402 42.5,83.3228402 Z" id="Combined-Shape"></path>
                </g>
            </g>
        </g>
    </g>
</svg>