<?xml version="1.0" encoding="UTF-8"?>
<svg width="41px" height="30px" viewBox="0 0 41 30" version="1.1" xmlns="http://www.w3.org/2000/svg" xmlns:xlink="http://www.w3.org/1999/xlink">
    <!-- Generator: sketchtool 51.2 (57519) - http://www.bohemiancoding.com/sketch -->
    <title>D0D5D792-FE4F-42DA-B6EC-7770C669999E</title>
    <desc>Created with sketchtool.</desc>
    <defs></defs>
    <g id="Pages" stroke="none" stroke-width="1" fill="none" fill-rule="evenodd">
        <g id="Головна-Світанок" transform="translate(-498.000000, -2955.000000)" fill="#A5C7E9" fill-rule="nonzero">
            <g id="Map-and-Contacts" transform="translate(0.000000, 2770.000000)">
                <g id="contacts" transform="translate(475.000000, 44.697562)">
                    <path d="M36.5583984,169.708529 C33.1904323,169.709385 30.4950312,168.197185 29.774487,164.942313 C28.9485599,161.212789 28.5493047,157.289635 30.4007865,153.614945 C31.0605,152.304943 32.2025755,151.436177 33.4191901,150.709635 C34.7137708,149.935971 35.5354141,149.014086 35.2449687,147.37594 C35.1447266,146.807044 35.3717708,146.184172 35.2920911,145.608422 C35.2526797,145.32226 34.8568516,145.084935 34.6220964,144.825333 C34.4318932,145.095216 34.0523437,145.385661 34.0797604,145.630698 C34.3539271,148.093057 32.8777109,149.331091 30.9122786,150.174154 C29.804474,150.649661 28.6409792,151.036065 27.4663464,151.305091 C26.353401,151.560409 25.2541641,151.283672 24.3434167,150.569982 C22.4482396,149.085198 22.5501953,146.257854 24.6981198,144.884451 C26.155487,143.952284 27.8047708,143.281432 29.434349,142.667128 C33.632526,141.082958 38.0491797,140.521773 42.4881094,140.425815 C45.1809401,140.367555 47.8900495,140.774521 50.5828802,141.06668 C54.131625,141.452227 57.4747448,142.599443 60.6473672,144.186182 C61.5135625,144.618852 62.3951797,145.338539 62.8792552,146.157612 C64.3820312,148.697938 62.5699609,151.521854 59.5070052,151.342789 C57.2219974,151.209133 55.1066302,150.362643 53.3853776,148.755341 C52.5980052,148.020232 52.2004635,147.118052 52.3384036,146.014531 C52.3658203,145.794341 52.4052318,145.512464 52.2989922,145.352247 C52.1499141,145.126917 51.8860286,144.897302 51.6375651,144.851036 C51.5116198,144.827904 51.234026,145.176609 51.1637708,145.400227 C51.0832344,145.654688 51.148349,145.958841 51.1663411,146.239862 C51.1946146,146.690523 51.3531172,147.169458 51.252875,147.586706 C50.8776094,149.126323 51.7232422,149.905128 52.8918776,150.615391 C54.5608672,151.628951 55.9548333,152.917534 56.6710937,154.821279 C57.2674062,156.403734 57.3350911,163.489229 56.7207865,165.039984 C55.6258333,167.802214 53.3836641,169.822479 49.8717604,169.713669 C48.7416797,169.677685 38.7345964,169.707672 36.5583984,169.708529 Z M43.1752396,162.086695 C45.7472656,161.965034 48.0254193,161.253914 49.8006484,159.383583 C51.5844453,157.502971 51.7249557,155.359331 50.3061432,153.207979 C49.4750755,151.949383 48.2790234,151.204849 46.9201849,150.643664 C43.4596875,149.212857 39.2795026,149.92312 36.8239974,152.382909 C34.6632214,154.547969 34.6126719,157.359034 36.7743047,159.526664 C38.5418229,161.298466 40.7908464,161.959036 43.1752396,162.086695 Z M43.2609167,144.107359 C44.3618672,144.107359 45.4602474,144.130492 46.5577708,144.098792 C47.2628932,144.078229 47.6201667,144.362677 47.6424427,145.067799 C47.6492969,145.264857 47.7041302,145.466198 47.6767135,145.657258 C47.6321615,145.969979 47.5387734,146.275846 47.4650911,146.584284 C47.1917812,146.478901 46.8833437,146.422354 46.6494453,146.260424 C44.9076302,145.061802 41.5516589,145.047237 39.7952786,146.231294 C39.5579531,146.39151 39.2512292,146.445487 38.9762057,146.549156 C38.9025234,146.267279 38.8091354,145.988828 38.7628698,145.702667 C38.7311693,145.511607 38.7757214,145.309409 38.7705807,145.112352 C38.7534453,144.408943 39.0678802,144.086797 39.7944219,144.104789 C40.949349,144.133919 42.1051328,144.1125 43.2609167,144.1125 C43.2609167,144.110786 43.2609167,144.109073 43.2609167,144.107359 Z M43.6584583,158.715302 C42.0331641,158.632195 40.8945156,158.364026 39.9494974,157.553521 C38.403026,156.225526 38.4150208,154.362906 39.9683464,153.034911 C41.648474,151.59725 44.6557396,151.550984 46.3410078,152.936383 C48.1967734,154.462292 48.0279896,156.814128 45.906625,157.953633 C45.1081146,158.382018 44.1690938,158.548232 43.6584583,158.715302 Z" id="Combined-Shape"></path>
                </g>
            </g>
        </g>
    </g>
</svg>