<?xml version="1.0" encoding="UTF-8"?>
<svg width="44px" height="74px" viewBox="0 0 44 74" version="1.1" xmlns="http://www.w3.org/2000/svg" xmlns:xlink="http://www.w3.org/1999/xlink">
    <!-- Generator: sketchtool 51.2 (57519) - http://www.bohemiancoding.com/sketch -->
    <title>574B5D90-C54B-41ED-91F4-9BC0A67C3D5F</title>
    <desc>Created with sketchtool.</desc>
    <defs></defs>
    <g id="Pages" stroke="none" stroke-width="1" fill="none" fill-rule="evenodd">
        <g id="Головна-Світанок" transform="translate(-537.000000, -623.000000)" fill="#FFFFFF" fill-rule="nonzero">
            <g id="Additional-links" transform="translate(474.000000, 602.000000)">
                <g id="1">
                    <path d="M87.4227598,21.3569787 L101.630369,36.9353971 L82.5772402,57.8294657 L75.4455479,50.0089808 L68.3696313,42.249831 L87.4227598,21.3569787 Z M73.0052789,51.778837 L74.3857291,51.778837 L81.9078517,60.0272776 C81.9948429,60.1237109 82.0997394,60.1992938 82.2160445,60.2522887 C82.331399,60.3051099 82.4543592,60.3320417 82.5771609,60.3320417 L90.7517967,60.3320417 C91.2746945,60.3320417 91.697291,59.8675978 91.697291,59.2952528 C91.697291,58.7229078 91.2746945,58.2584638 90.7517967,58.2584638 L84.8595306,58.2584638 L90.7687512,51.7786633 L96.9947211,51.7786633 L105.303567,66.8118423 L64.6964327,66.8118423 L73.0052789,51.778837 Z M63.9631874,68.8854202 L106.036813,68.8854202 L106.036813,94.4593737 L63.9631874,94.4593737 L63.9631874,68.8854202 Z" id="selfgovern"></path>
                </g>
            </g>
        </g>
    </g>
</svg>